<mxfile host="app.diagrams.net" modified="2022-04-12T21:24:55.185Z" agent="5.0 (Windows NT 10.0; Win64; x64) AppleWebKit/537.36 (KHTML, like Gecko) Chrome/100.0.4896.88 Safari/537.36" etag="83jrn1myWjSxg-hKAu0o" version="17.4.3" type="github">
  <diagram id="ZzVfqEqvUs1jsaNCpchU" name="Page-1">
    <mxGraphModel dx="1094" dy="1064" grid="1" gridSize="10" guides="1" tooltips="1" connect="1" arrows="1" fold="1" page="1" pageScale="1" pageWidth="850" pageHeight="1100" math="0" shadow="0">
      <root>
        <mxCell id="0" />
        <mxCell id="1" parent="0" />
        <mxCell id="6LOMDdXFKvTokvs5YDAu-8" value="" style="edgeStyle=orthogonalEdgeStyle;rounded=0;orthogonalLoop=1;jettySize=auto;html=1;" edge="1" parent="1" source="6LOMDdXFKvTokvs5YDAu-1" target="6LOMDdXFKvTokvs5YDAu-7">
          <mxGeometry relative="1" as="geometry" />
        </mxCell>
        <mxCell id="6LOMDdXFKvTokvs5YDAu-10" value="" style="edgeStyle=orthogonalEdgeStyle;rounded=0;orthogonalLoop=1;jettySize=auto;html=1;" edge="1" parent="1" source="6LOMDdXFKvTokvs5YDAu-1" target="6LOMDdXFKvTokvs5YDAu-9">
          <mxGeometry relative="1" as="geometry">
            <Array as="points">
              <mxPoint x="85" y="270" />
            </Array>
          </mxGeometry>
        </mxCell>
        <mxCell id="6LOMDdXFKvTokvs5YDAu-1" value="LEILOEIRO" style="shape=umlActor;verticalLabelPosition=bottom;verticalAlign=top;html=1;outlineConnect=0;" vertex="1" parent="1">
          <mxGeometry x="70" y="100" width="30" height="60" as="geometry" />
        </mxCell>
        <mxCell id="6LOMDdXFKvTokvs5YDAu-12" value="" style="edgeStyle=orthogonalEdgeStyle;rounded=0;orthogonalLoop=1;jettySize=auto;html=1;" edge="1" parent="1" source="6LOMDdXFKvTokvs5YDAu-6" target="6LOMDdXFKvTokvs5YDAu-11">
          <mxGeometry relative="1" as="geometry" />
        </mxCell>
        <mxCell id="6LOMDdXFKvTokvs5YDAu-13" value="" style="edgeStyle=orthogonalEdgeStyle;rounded=0;orthogonalLoop=1;jettySize=auto;html=1;" edge="1" parent="1" source="6LOMDdXFKvTokvs5YDAu-6" target="6LOMDdXFKvTokvs5YDAu-11">
          <mxGeometry relative="1" as="geometry" />
        </mxCell>
        <mxCell id="6LOMDdXFKvTokvs5YDAu-15" value="" style="edgeStyle=orthogonalEdgeStyle;rounded=0;orthogonalLoop=1;jettySize=auto;html=1;" edge="1" parent="1" source="6LOMDdXFKvTokvs5YDAu-6" target="6LOMDdXFKvTokvs5YDAu-14">
          <mxGeometry relative="1" as="geometry">
            <Array as="points">
              <mxPoint x="530" y="200" />
              <mxPoint x="530" y="200" />
            </Array>
          </mxGeometry>
        </mxCell>
        <mxCell id="6LOMDdXFKvTokvs5YDAu-17" value="" style="edgeStyle=orthogonalEdgeStyle;rounded=0;orthogonalLoop=1;jettySize=auto;html=1;" edge="1" parent="1" source="6LOMDdXFKvTokvs5YDAu-6" target="6LOMDdXFKvTokvs5YDAu-16">
          <mxGeometry relative="1" as="geometry">
            <Array as="points">
              <mxPoint x="555" y="290" />
            </Array>
          </mxGeometry>
        </mxCell>
        <mxCell id="6LOMDdXFKvTokvs5YDAu-6" value="USUÁRIO" style="shape=umlActor;verticalLabelPosition=bottom;verticalAlign=top;html=1;outlineConnect=0;" vertex="1" parent="1">
          <mxGeometry x="540" y="140" width="30" height="60" as="geometry" />
        </mxCell>
        <mxCell id="6LOMDdXFKvTokvs5YDAu-7" value="&lt;br&gt;Criar um leilão" style="ellipse;whiteSpace=wrap;html=1;verticalAlign=top;" vertex="1" parent="1">
          <mxGeometry x="190" y="100" width="120" height="60" as="geometry" />
        </mxCell>
        <mxCell id="6LOMDdXFKvTokvs5YDAu-9" value="&lt;br&gt;Finalizar um leilão" style="ellipse;whiteSpace=wrap;html=1;verticalAlign=top;" vertex="1" parent="1">
          <mxGeometry x="190" y="230" width="120" height="60" as="geometry" />
        </mxCell>
        <mxCell id="6LOMDdXFKvTokvs5YDAu-11" value="&lt;br&gt;Dar lances em um leilão" style="ellipse;whiteSpace=wrap;html=1;verticalAlign=top;" vertex="1" parent="1">
          <mxGeometry x="370" y="80" width="120" height="60" as="geometry" />
        </mxCell>
        <mxCell id="6LOMDdXFKvTokvs5YDAu-14" value="&lt;br&gt;Ganhar um leilão" style="ellipse;whiteSpace=wrap;html=1;verticalAlign=top;" vertex="1" parent="1">
          <mxGeometry x="370" y="170" width="120" height="60" as="geometry" />
        </mxCell>
        <mxCell id="6LOMDdXFKvTokvs5YDAu-16" value="&lt;br&gt;Pagar pelo produto" style="ellipse;whiteSpace=wrap;html=1;verticalAlign=top;" vertex="1" parent="1">
          <mxGeometry x="370" y="260" width="120" height="60" as="geometry" />
        </mxCell>
        <mxCell id="6LOMDdXFKvTokvs5YDAu-19" value="" style="endArrow=classic;html=1;rounded=0;entryX=0.5;entryY=1;entryDx=0;entryDy=0;exitX=0.5;exitY=0;exitDx=0;exitDy=0;" edge="1" parent="1" source="6LOMDdXFKvTokvs5YDAu-16" target="6LOMDdXFKvTokvs5YDAu-14">
          <mxGeometry width="50" height="50" relative="1" as="geometry">
            <mxPoint x="410" y="270" as="sourcePoint" />
            <mxPoint x="460" y="220" as="targetPoint" />
          </mxGeometry>
        </mxCell>
        <mxCell id="6LOMDdXFKvTokvs5YDAu-20" value="" style="endArrow=classic;html=1;rounded=0;entryX=0.5;entryY=1;entryDx=0;entryDy=0;exitX=0.5;exitY=0;exitDx=0;exitDy=0;" edge="1" parent="1" source="6LOMDdXFKvTokvs5YDAu-14" target="6LOMDdXFKvTokvs5YDAu-11">
          <mxGeometry width="50" height="50" relative="1" as="geometry">
            <mxPoint x="420" y="190" as="sourcePoint" />
            <mxPoint x="470" y="140" as="targetPoint" />
          </mxGeometry>
        </mxCell>
        <mxCell id="6LOMDdXFKvTokvs5YDAu-21" value="&lt;font style=&quot;font-size: 8px&quot;&gt;&amp;lt;&amp;lt;depends&amp;gt;&amp;gt;&lt;/font&gt;" style="text;html=1;align=center;verticalAlign=middle;resizable=0;points=[];autosize=1;strokeColor=none;fillColor=none;" vertex="1" parent="1">
          <mxGeometry x="370" y="240" width="60" height="20" as="geometry" />
        </mxCell>
        <mxCell id="6LOMDdXFKvTokvs5YDAu-22" value="&lt;font style=&quot;font-size: 8px&quot;&gt;&amp;lt;&amp;lt;depends&amp;gt;&amp;gt;&lt;/font&gt;" style="text;html=1;align=center;verticalAlign=middle;resizable=0;points=[];autosize=1;strokeColor=none;fillColor=none;" vertex="1" parent="1">
          <mxGeometry x="370" y="150" width="60" height="20" as="geometry" />
        </mxCell>
        <mxCell id="6LOMDdXFKvTokvs5YDAu-23" value="" style="endArrow=classic;html=1;rounded=0;fontSize=8;exitX=0;exitY=0.5;exitDx=0;exitDy=0;entryX=1;entryY=0.5;entryDx=0;entryDy=0;" edge="1" parent="1" source="6LOMDdXFKvTokvs5YDAu-11" target="6LOMDdXFKvTokvs5YDAu-7">
          <mxGeometry width="50" height="50" relative="1" as="geometry">
            <mxPoint x="250" y="320" as="sourcePoint" />
            <mxPoint x="300" y="270" as="targetPoint" />
          </mxGeometry>
        </mxCell>
        <mxCell id="6LOMDdXFKvTokvs5YDAu-24" value="&lt;font style=&quot;font-size: 8px&quot;&gt;&amp;lt;&amp;lt;depends&amp;gt;&amp;gt;&lt;/font&gt;" style="text;html=1;align=center;verticalAlign=middle;resizable=0;points=[];autosize=1;strokeColor=none;fillColor=none;" vertex="1" parent="1">
          <mxGeometry x="300" y="80" width="60" height="20" as="geometry" />
        </mxCell>
        <mxCell id="6LOMDdXFKvTokvs5YDAu-25" value="&lt;font style=&quot;font-size: 12px&quot;&gt;Pagar com cartão&lt;/font&gt;" style="ellipse;whiteSpace=wrap;html=1;fontSize=8;" vertex="1" parent="1">
          <mxGeometry x="290" y="360" width="120" height="80" as="geometry" />
        </mxCell>
        <mxCell id="6LOMDdXFKvTokvs5YDAu-26" value="&lt;font style=&quot;font-size: 12px&quot;&gt;Pagar com boleto&lt;/font&gt;" style="ellipse;whiteSpace=wrap;html=1;fontSize=8;" vertex="1" parent="1">
          <mxGeometry x="450" y="360" width="120" height="80" as="geometry" />
        </mxCell>
        <mxCell id="6LOMDdXFKvTokvs5YDAu-27" value="" style="endArrow=classic;html=1;rounded=0;fontSize=12;entryX=0.246;entryY=0.956;entryDx=0;entryDy=0;entryPerimeter=0;exitX=0.5;exitY=0;exitDx=0;exitDy=0;" edge="1" parent="1" source="6LOMDdXFKvTokvs5YDAu-25" target="6LOMDdXFKvTokvs5YDAu-16">
          <mxGeometry width="50" height="50" relative="1" as="geometry">
            <mxPoint x="250" y="320" as="sourcePoint" />
            <mxPoint x="300" y="270" as="targetPoint" />
          </mxGeometry>
        </mxCell>
        <mxCell id="6LOMDdXFKvTokvs5YDAu-28" value="" style="endArrow=classic;html=1;rounded=0;fontSize=12;entryX=0.711;entryY=1.011;entryDx=0;entryDy=0;entryPerimeter=0;exitX=0.5;exitY=0;exitDx=0;exitDy=0;" edge="1" parent="1" source="6LOMDdXFKvTokvs5YDAu-26" target="6LOMDdXFKvTokvs5YDAu-16">
          <mxGeometry width="50" height="50" relative="1" as="geometry">
            <mxPoint x="250" y="320" as="sourcePoint" />
            <mxPoint x="300" y="270" as="targetPoint" />
          </mxGeometry>
        </mxCell>
        <mxCell id="6LOMDdXFKvTokvs5YDAu-29" value="&lt;font style=&quot;font-size: 8px&quot;&gt;&amp;lt;&amp;lt;extends&amp;gt;&amp;gt;&lt;/font&gt;" style="text;html=1;align=center;verticalAlign=middle;resizable=0;points=[];autosize=1;strokeColor=none;fillColor=none;" vertex="1" parent="1">
          <mxGeometry x="300" y="330" width="60" height="20" as="geometry" />
        </mxCell>
        <mxCell id="6LOMDdXFKvTokvs5YDAu-30" value="&lt;font style=&quot;font-size: 8px&quot;&gt;&amp;lt;&amp;lt;extends&amp;gt;&amp;gt;&lt;/font&gt;" style="text;html=1;align=center;verticalAlign=middle;resizable=0;points=[];autosize=1;strokeColor=none;fillColor=none;" vertex="1" parent="1">
          <mxGeometry x="500" y="330" width="60" height="20" as="geometry" />
        </mxCell>
        <mxCell id="6LOMDdXFKvTokvs5YDAu-31" value="&lt;h1&gt;Leilão&lt;/h1&gt;&lt;p&gt;Diagrama simples, exercício de caso de uso.&lt;/p&gt;&lt;p&gt;Leiloeiro e Usuário participando de um leilão&amp;nbsp;&lt;/p&gt;" style="text;html=1;strokeColor=none;fillColor=none;spacing=5;spacingTop=-20;whiteSpace=wrap;overflow=hidden;rounded=0;fontSize=12;" vertex="1" parent="1">
          <mxGeometry x="20" y="330" width="190" height="120" as="geometry" />
        </mxCell>
      </root>
    </mxGraphModel>
  </diagram>
</mxfile>
